<?xml version="1.0" encoding="utf-8" ?>
<svg xmlns="http://www.w3.org/2000/svg" xmlns:xlink="http://www.w3.org/1999/xlink" width="58" height="29">
	<path fill="#181818" transform="scale(0.0566406 0.0566406)" d="M0 0L0 512L1024 512L1024 0L0 0Z"/>
	<path fill="#FFFEF9" transform="scale(0.0566406 0.0566406)" d="M334.65 301.373L334.663 110.218C334.662 102.263 334.458 94.2473 334.748 86.2985C358.197 93.1677 382.999 93.6426 407.234 93.6467L463.293 93.6323C483.973 93.6201 499.439 97.1849 511.915 116.267C513.354 113.766 515.428 111.477 517.427 109.415C535.112 91.1694 550.516 93.6402 573.806 93.6475L613.656 93.6437C635.879 93.6395 653.869 93.0353 675.974 89.1023C679.875 88.4081 685.36 87.8992 688.903 86.4877C690.285 88.8588 689.332 93.4624 689.332 96.1477L689.333 233.959C689.332 238.928 690.058 270.486 688.925 272.245C689.75 273.464 689.835 299.33 689.072 301.356C685.878 300.808 681.902 301.214 678.646 301.215L363.885 301.222C354.168 301.222 344.353 300.932 334.65 301.373ZM359.816 121.954C360.83 165.037 360.432 210.001 359.943 253.13L461.24 253.068C465.131 253.066 469.536 252.662 473.344 253.416C489.597 256.634 501.648 272.064 502.064 288.433C508.427 288.426 514.795 288.371 521.157 288.446C522.558 286.217 522.329 282.437 523.079 279.875C531.115 252.393 551.01 253.056 573.344 253.068L643.231 253.076C649.646 253.077 656.186 252.818 662.588 253.238C663.266 251.425 662.834 225.055 662.834 220.946C662.834 213.049 663.798 153.848 662.384 151.386C663.447 149.672 663.663 123.897 662.475 121.924L568.007 121.984C552.62 121.985 538.46 123.457 534.143 142.315C532.879 147.836 533.578 158.678 533.581 164.719L533.572 211.139C533.571 215.14 534.527 233.766 533.163 236.267C523.47 243.257 516.751 246.134 511.903 259.403C507.8 249.612 500.417 240.573 490.534 236.235C489.996 228.256 490.399 220.048 490.399 212.043L490.405 167.023C490.413 160.5 491.077 147.664 489.721 141.763C485.494 123.38 471.325 121.963 456.313 121.97L359.816 121.954Z"/>
	<path fill="#FFFEF9" transform="scale(0.0566406 0.0566406)" d="M157.375 456L157.375 360L170.75 360L170.75 365.75C172.333 363.917 174.25 362.333 176.5 361C178.75 359.667 181.417 359 184.5 359C188.25 359 191.229 359.979 193.438 361.937C195.646 363.896 197.292 366.354 198.375 369.312C199.458 372.271 200.167 375.271 200.5 378.312C200.833 381.354 201 383.958 201 386.125L201 403.625C201 408.708 200.5 413.521 199.5 418.062C198.5 422.604 196.688 426.271 194.063 429.062C191.438 431.854 187.75 433.25 183 433.25C180.417 433.25 178.125 432.604 176.125 431.312C174.125 430.021 172.333 428.542 170.75 426.875L170.75 456L157.375 456ZM180.375 422.75C182.708 422.75 184.375 421.896 185.375 420.187C186.375 418.479 187 416.167 187.25 413.25C187.5 410.333 187.625 407.125 187.625 403.625L187.625 386.125C187.625 383.125 187.458 380.354 187.125 377.812C186.792 375.271 186.083 373.25 185 371.75C183.917 370.25 182.208 369.5 179.875 369.5C178.125 369.5 176.458 369.875 174.875 370.625C173.292 371.375 171.917 372.25 170.75 373.25L170.75 419.5C172 420.417 173.417 421.187 175 421.812C176.583 422.437 178.375 422.75 180.375 422.75ZM233.125 433.25C227.458 433.25 223.083 432.146 220 429.937C216.917 427.729 214.771 424.479 213.563 420.187C212.354 415.896 211.75 410.625 211.75 404.375L211.75 387.875C211.75 381.458 212.375 376.125 213.625 371.875C214.875 367.625 217.063 364.417 220.188 362.25C223.313 360.083 227.625 359 233.125 359C239.208 359 243.688 360.25 246.563 362.75C249.438 365.25 251.333 368.854 252.25 373.562C253.167 378.271 253.625 383.917 253.625 390.5L253.625 396.375L225.125 396.375L225.125 410.875C225.125 413.792 225.396 416.167 225.938 418C226.479 419.833 227.354 421.187 228.563 422.062C229.771 422.937 231.333 423.375 233.25 423.375C235.25 423.375 236.771 422.896 237.813 421.937C238.854 420.979 239.563 419.604 239.938 417.812C240.313 416.021 240.5 413.917 240.5 411.5L240.5 407.125L253.5 407.125L253.5 409.875C253.5 417.125 251.958 422.833 248.875 427C245.792 431.167 240.542 433.25 233.125 433.25ZM225.125 389.125L240.5 389.125L240.5 382.625C240.5 379.625 240.333 377.104 240 375.062C239.667 373.021 238.979 371.479 237.938 370.437C236.896 369.396 235.25 368.875 233 368.875C230.833 368.875 229.188 369.375 228.063 370.375C226.938 371.375 226.167 373.062 225.75 375.437C225.333 377.812 225.125 381.083 225.125 385.25L225.125 389.125ZM266.125 432.25L266.125 360L279.5 360L279.5 370.25C282.167 365.833 284.834 362.875 287.5 361.375C290.166 359.875 292.834 359.125 295.5 359.125C295.834 359.125 296.146 359.125 296.438 359.125C296.729 359.125 297.125 359.167 297.625 359.25L297.625 374C296.625 373.583 295.479 373.229 294.188 372.937C292.896 372.646 291.584 372.5 290.25 372.5C288.166 372.5 286.271 372.979 284.563 373.937C282.854 374.896 281.167 376.75 279.5 379.5L279.5 432.25L266.125 432.25ZM322.625 433.25C316.709 433.25 311.959 431.396 308.375 427.687C304.791 423.979 302.75 419.083 302.25 413L313.375 409.625C314.041 414.208 315.166 417.646 316.75 419.937C318.334 422.229 320.666 423.375 323.75 423.375C326.166 423.375 328 422.687 329.25 421.312C330.5 419.937 331.125 418.083 331.125 415.75C331.125 413.667 330.666 411.792 329.75 410.125C328.834 408.458 327.334 406.75 325.25 405L312.875 394.375C310.375 392.208 308.271 389.792 306.563 387.125C304.854 384.458 304 381 304 376.75C304 372.917 304.771 369.687 306.313 367.062C307.854 364.437 310.021 362.437 312.813 361.062C315.604 359.687 318.875 359 322.625 359C328.625 359 333.209 360.854 336.375 364.562C339.541 368.271 341.375 372.75 341.875 378L332.375 381.375C332.041 378.875 331.541 376.687 330.875 374.812C330.209 372.937 329.25 371.479 328 370.437C326.75 369.396 325.125 368.875 323.125 368.875C320.959 368.875 319.229 369.604 317.938 371.062C316.646 372.521 316 374.25 316 376.25C316 377.5 316.271 378.729 316.813 379.937C317.354 381.146 318.291 382.333 319.625 383.5L332.375 395.25C334.125 396.833 335.771 398.542 337.313 400.375C338.854 402.208 340.125 404.292 341.125 406.625C342.125 408.958 342.625 411.667 342.625 414.75C342.625 418.833 341.791 422.25 340.125 425C338.459 427.75 336.125 429.812 333.125 431.187C330.125 432.562 326.625 433.25 322.625 433.25ZM372.5 433.25C367.166 433.25 362.959 432.167 359.875 430C356.791 427.833 354.604 424.75 353.313 420.75C352.021 416.75 351.375 412.042 351.375 406.625L351.375 385.625C351.375 380.208 352.021 375.5 353.313 371.5C354.604 367.5 356.791 364.417 359.875 362.25C362.959 360.083 367.166 359 372.5 359C377.834 359 382.021 360.083 385.063 362.25C388.104 364.417 390.271 367.5 391.563 371.5C392.854 375.5 393.5 380.208 393.5 385.625L393.5 406.625C393.5 412.042 392.854 416.75 391.563 420.75C390.271 424.75 388.104 427.833 385.063 430C382.021 432.167 377.834 433.25 372.5 433.25ZM372.5 423.375C375.084 423.375 376.896 422.625 377.938 421.125C378.979 419.625 379.604 417.646 379.813 415.187C380.021 412.729 380.125 410.167 380.125 407.5L380.125 384.875C380.125 382.125 380.021 379.542 379.813 377.125C379.604 374.708 378.979 372.729 377.938 371.187C376.896 369.646 375.084 368.875 372.5 368.875C369.916 368.875 368.084 369.646 367 371.187C365.916 372.729 365.271 374.708 365.063 377.125C364.854 379.542 364.75 382.125 364.75 384.875L364.75 407.5C364.75 410.167 364.854 412.729 365.063 415.187C365.271 417.646 365.916 419.625 367 421.125C368.084 422.625 369.916 423.375 372.5 423.375ZM405.75 432.25L405.75 360L419.125 360L419.125 367.125C421.541 364.875 424.209 362.958 427.125 361.375C430.041 359.792 433.25 359 436.75 359C439.666 359 441.896 359.75 443.438 361.25C444.979 362.75 446.063 364.625 446.688 366.875C447.313 369.125 447.625 371.417 447.625 373.75L447.625 432.25L434.25 432.25L434.25 377.625C434.25 375.042 433.875 373.042 433.125 371.625C432.375 370.208 430.834 369.5 428.5 369.5C427 369.5 425.438 369.937 423.813 370.812C422.188 371.687 420.625 372.75 419.125 374L419.125 432.25L405.75 432.25ZM471.5 433.25C468.666 433.25 466.166 432.437 464 430.812C461.834 429.187 460.125 427.104 458.875 424.562C457.625 422.021 457 419.333 457 416.5C457 412 457.75 408.208 459.25 405.125C460.75 402.042 462.813 399.437 465.438 397.312C468.063 395.187 471.104 393.333 474.563 391.75C478.021 390.167 481.666 388.625 485.5 387.125L485.5 382C485.5 379.083 485.334 376.667 485 374.75C484.666 372.833 483.979 371.396 482.938 370.437C481.896 369.479 480.334 369 478.25 369C476.416 369 474.938 369.417 473.813 370.25C472.688 371.083 471.875 372.271 471.375 373.812C470.875 375.354 470.625 377.167 470.625 379.25L470.625 382.875L457.375 382.375C457.541 374.375 459.375 368.479 462.875 364.687C466.375 360.896 471.791 359 479.125 359C486.291 359 491.375 360.958 494.375 364.875C497.375 368.792 498.875 374.458 498.875 381.875L498.875 414.875C498.875 417.125 498.938 419.292 499.063 421.375C499.188 423.458 499.354 425.396 499.563 427.187C499.771 428.979 499.959 430.667 500.125 432.25L487.875 432.25C487.625 430.917 487.313 429.229 486.938 427.187C486.563 425.146 486.291 423.292 486.125 421.625C485.291 424.458 483.688 427.104 481.313 429.562C478.938 432.021 475.666 433.25 471.5 433.25ZM476.75 421.75C478.084 421.75 479.334 421.375 480.5 420.625C481.666 419.875 482.709 419.021 483.625 418.062C484.541 417.104 485.166 416.333 485.5 415.75L485.5 395.25C483.416 396.417 481.459 397.583 479.625 398.75C477.791 399.917 476.188 401.146 474.813 402.437C473.438 403.729 472.354 405.187 471.563 406.812C470.771 408.437 470.375 410.292 470.375 412.375C470.375 415.292 470.916 417.583 472 419.25C473.084 420.917 474.666 421.75 476.75 421.75ZM513 432.25L513 331L526.375 331L526.375 432.25L513 432.25ZM566.75 450.5C565.666 450.5 564.479 450.437 563.187 450.312C561.896 450.187 560.791 449.958 559.875 449.625L559.875 440C560.291 440.083 560.875 440.167 561.625 440.25C562.375 440.333 562.959 440.375 563.375 440.375C565.291 440.375 566.791 440 567.875 439.25C568.959 438.5 569.729 437.458 570.187 436.125C570.646 434.792 570.875 433.292 570.875 431.625L570.875 360L584.25 360L584.25 433C584.25 438.667 582.687 443 579.562 446C576.437 449 572.166 450.5 566.75 450.5ZM570.875 349.25L570.875 335.25L584.375 335.25L584.375 349.25L570.875 349.25ZM617.625 433.25C612.291 433.25 608.084 432.167 605 430C601.916 427.833 599.729 424.75 598.437 420.75C597.146 416.75 596.5 412.042 596.5 406.625L596.5 385.625C596.5 380.208 597.146 375.5 598.437 371.5C599.729 367.5 601.916 364.417 605 362.25C608.084 360.083 612.291 359 617.625 359C622.959 359 627.146 360.083 630.187 362.25C633.229 364.417 635.396 367.5 636.687 371.5C637.979 375.5 638.625 380.208 638.625 385.625L638.625 406.625C638.625 412.042 637.979 416.75 636.687 420.75C635.396 424.75 633.229 427.833 630.187 430C627.146 432.167 622.959 433.25 617.625 433.25ZM617.625 423.375C620.209 423.375 622.021 422.625 623.062 421.125C624.104 419.625 624.729 417.646 624.937 415.187C625.146 412.729 625.25 410.167 625.25 407.5L625.25 384.875C625.25 382.125 625.146 379.542 624.937 377.125C624.729 374.708 624.104 372.729 623.062 371.187C622.021 369.646 620.209 368.875 617.625 368.875C615.041 368.875 613.209 369.646 612.125 371.187C611.041 372.729 610.396 374.708 610.187 377.125C609.979 379.542 609.875 382.125 609.875 384.875L609.875 407.5C609.875 410.167 609.979 412.729 610.187 415.187C610.396 417.646 611.041 419.625 612.125 421.125C613.209 422.625 615.041 423.375 617.625 423.375ZM661.25 433.25C658.416 433.25 656.209 432.5 654.625 431C653.041 429.5 651.937 427.625 651.312 425.375C650.687 423.125 650.375 420.833 650.375 418.5L650.375 360L663.75 360L663.75 414.5C663.75 417.083 664.125 419.104 664.875 420.562C665.625 422.021 667.166 422.75 669.5 422.75C671 422.75 672.562 422.312 674.187 421.437C675.812 420.562 677.375 419.5 678.875 418.25L678.875 360L692.25 360L692.25 432.25L678.875 432.25L678.875 425.125C676.541 427.375 673.896 429.292 670.937 430.875C667.979 432.458 664.75 433.25 661.25 433.25ZM706.25 432.25L706.25 360L719.625 360L719.625 370.25C722.291 365.833 724.959 362.875 727.625 361.375C730.291 359.875 732.959 359.125 735.625 359.125C735.959 359.125 736.271 359.125 736.562 359.125C736.854 359.125 737.25 359.167 737.75 359.25L737.75 374C736.75 373.583 735.604 373.229 734.312 372.937C733.021 372.646 731.709 372.5 730.375 372.5C728.291 372.5 726.396 372.979 724.687 373.937C722.979 374.896 721.291 376.75 719.625 379.5L719.625 432.25L706.25 432.25ZM746 432.25L746 360L759.375 360L759.375 367.125C761.791 364.875 764.459 362.958 767.375 361.375C770.291 359.792 773.5 359 777 359C779.916 359 782.146 359.75 783.687 361.25C785.229 362.75 786.312 364.625 786.937 366.875C787.562 369.125 787.875 371.417 787.875 373.75L787.875 432.25L774.5 432.25L774.5 377.625C774.5 375.042 774.125 373.042 773.375 371.625C772.625 370.208 771.084 369.5 768.75 369.5C767.25 369.5 765.687 369.937 764.062 370.812C762.437 371.687 760.875 372.75 759.375 374L759.375 432.25L746 432.25ZM811.75 433.25C808.916 433.25 806.416 432.437 804.25 430.812C802.084 429.187 800.375 427.104 799.125 424.562C797.875 422.021 797.25 419.333 797.25 416.5C797.25 412 798 408.208 799.5 405.125C801 402.042 803.062 399.437 805.687 397.312C808.312 395.187 811.354 393.333 814.812 391.75C818.271 390.167 821.916 388.625 825.75 387.125L825.75 382C825.75 379.083 825.584 376.667 825.25 374.75C824.916 372.833 824.229 371.396 823.187 370.437C822.146 369.479 820.584 369 818.5 369C816.666 369 815.187 369.417 814.062 370.25C812.937 371.083 812.125 372.271 811.625 373.812C811.125 375.354 810.875 377.167 810.875 379.25L810.875 382.875L797.625 382.375C797.791 374.375 799.625 368.479 803.125 364.687C806.625 360.896 812.041 359 819.375 359C826.541 359 831.625 360.958 834.625 364.875C837.625 368.792 839.125 374.458 839.125 381.875L839.125 414.875C839.125 417.125 839.187 419.292 839.312 421.375C839.437 423.458 839.604 425.396 839.812 427.187C840.021 428.979 840.209 430.667 840.375 432.25L828.125 432.25C827.875 430.917 827.562 429.229 827.187 427.187C826.812 425.146 826.541 423.292 826.375 421.625C825.541 424.458 823.937 427.104 821.562 429.562C819.187 432.021 815.916 433.25 811.75 433.25ZM817 421.75C818.334 421.75 819.584 421.375 820.75 420.625C821.916 419.875 822.959 419.021 823.875 418.062C824.791 417.104 825.416 416.333 825.75 415.75L825.75 395.25C823.666 396.417 821.709 397.583 819.875 398.75C818.041 399.917 816.437 401.146 815.062 402.437C813.687 403.729 812.604 405.187 811.812 406.812C811.021 408.437 810.625 410.292 810.625 412.375C810.625 415.292 811.166 417.583 812.25 419.25C813.334 420.917 814.916 421.75 817 421.75ZM853.25 432.25L853.25 331L866.625 331L866.625 432.25L853.25 432.25Z"/>
</svg>
